<svg width="16" height="16" viewBox="0 0 12 12" fill="none" xmlns="http://www.w3.org/2000/svg"><path d="M11 5.688L6.27223 10.1469C5.69304 10.6931 4.90749 11 4.0884 11C3.26931 11 2.48376 10.6931 1.90457 10.1469C1.32538 9.60063 1 8.85976 1 8.08725C1 7.31474 1.32538 6.57387 1.90457 6.02763L6.63234 1.56875C7.01847 1.20459 7.54216 1 8.08823 1C8.63429 1 9.15799 1.20459 9.54411 1.56875C9.93024 1.93291 10.1472 2.42683 10.1472 2.94183C10.1472 3.45684 9.93024 3.95075 9.54411 4.31491L4.8112 8.77379C4.61814 8.95588 4.35629 9.05817 4.08326 9.05817C3.81022 9.05817 3.54838 8.95588 3.35531 8.77379C3.16225 8.59171 3.05379 8.34476 3.05379 8.08725C3.05379 7.82975 3.16225 7.58279 3.35531 7.40071L7.72297 3.28632" stroke="#0F1124" stroke-linejoin="round"/></svg>

